<?xml version="1.0" encoding="UTF-8"?>
<svg width="76px" height="107px" viewBox="0 0 76 107" version="1.1" xmlns="http://www.w3.org/2000/svg" xmlns:xlink="http://www.w3.org/1999/xlink">
    <title>surfrider</title>
    <desc>Created with Sketch.</desc>
    <g id="Page-1" stroke="none" stroke-width="1" fill="none" fill-rule="evenodd">
        <g id="surfrider" fill="#FFFFFF">
            <path d="M26.460733,75.2041885 C25.8638743,75.3633508 25.2670157,75.5623037 24.6701571,75.721466 L45.4806283,75.721466 C55.4282723,72.2198953 64.8586387,68.3204188 73.1350785,63.9832461 C74.0104712,63.5455497 74.8460733,63.0680628 75.721466,62.6303665 L75.721466,54.4732984 C72.1005236,56.6617801 68.3204188,58.7706806 64.460733,60.8 C53.4387435,66.5298429 40.1884817,71.304712 26.460733,75.2041885" id="Path"></path>
            <path d="M46.7937173,0.19895288 L30.9172775,0.19895288 C30.8774869,0.238743455 30.7979058,0.278534031 30.7581152,0.278534031 C20.6513089,6.36649215 10.226178,14.7623037 0.159162304,23.9937173 L0.159162304,32.5884817 C9.43036649,23.5958115 19.3780105,15.2 28.9277487,9.43036649 C34.8963351,5.80942408 40.9445026,2.66596859 46.7937173,0.19895288" id="Path"></path>
            <path d="M26.182199,67.6439791 C17.4680628,70.1507853 8.55497382,72.1801047 0.159162304,73.8513089 C0.19895288,74.3685864 0.397905759,74.8460733 0.756020942,75.1643979 C1.11413613,75.5225131 1.59162304,75.7612565 2.1486911,75.7612565 L20.4921466,75.7612565 C22.4020942,75.2439791 24.2722513,74.7267016 26.182199,74.2094241 C39.8701571,70.3099476 53.0806283,65.5350785 63.9434555,59.8450262 C68.0020942,57.7361257 71.9413613,55.5078534 75.721466,53.2 L75.721466,43.6900524 C69.7926702,48.3455497 62.7895288,52.7225131 55.2691099,56.6617801 C46.8335079,60.9989529 36.686911,64.6198953 26.182199,67.6439791" id="Path"></path>
            <path d="M45.5204188,51.4094241 C51.0115183,48.5445026 56.0649215,45.3612565 60.2429319,41.9790576 C64.4209424,38.5968586 67.7235602,35.0157068 69.6335079,31.3549738 C70.9465969,28.9277487 71.6230366,26.460733 71.6230366,24.0335079 C71.6230366,21.8052356 71.0659686,19.6167539 69.7926702,17.3486911 C68.3602094,14.8020942 66.4900524,13.0513089 64.2617801,11.8973822 C62.0335079,10.7434555 59.4073298,10.226178 56.5424084,10.226178 C52.5235602,10.226178 47.947644,11.260733 43.1329843,13.0513089 C38.3581152,14.8418848 33.304712,17.4282723 28.2513089,20.452356 C18.7811518,26.182199 8.63455497,35.8115183 0.159162304,44.9235602 L0.159162304,50.295288 C0.87539267,49.539267 1.59162304,48.7832461 2.34764398,47.9874346 C9.70890052,40.4272251 19.2586387,31.5141361 28.052356,26.2617801 C32.2303665,23.7549738 36.4481675,21.6062827 40.4272251,20.0942408 C44.4062827,18.582199 48.1465969,17.6670157 51.4094241,17.6670157 C53.4387435,17.6670157 55.2691099,18.0251309 56.860733,18.8209424 C58.452356,19.6167539 59.765445,20.8502618 60.7204188,22.521466 C61.5162304,23.9539267 61.9141361,25.4659686 61.9141361,26.9780105 C61.9141361,28.9277487 61.2774869,30.8376963 60.1633508,32.747644 C59.0492147,34.6575916 57.4973822,36.5277487 55.547644,38.3581152 C51.6879581,42.0188482 46.3560209,45.5204188 40.4670157,48.6240838 C35.9706806,51.0115183 30.5591623,53.0806283 25.0282723,54.8712042 C19.4973822,56.6219895 13.7675393,58.0942408 8.63455497,59.2879581 C5.57068063,60.0041885 2.70575916,60.6010471 0.159162304,61.078534 L0.159162304,64.6596859 C7.87853403,63.3465969 16.9507853,61.4764398 25.6251309,59.0094241 C32.8272251,56.9005236 39.7905759,54.3937173 45.5204188,51.4094241" id="Path"></path>
            <path d="M17.2691099,0.19895288 C11.539267,4.4565445 5.80942408,9.15183246 0.159162304,14.1256545 L0.159162304,22.4816754 C9.5895288,13.9267016 19.3382199,6.08795812 28.808377,0.19895288 L17.2691099,0.19895288 Z" id="Path"></path>
            <path d="M2.1486911,0.19895288 C1.59162304,0.19895288 1.11413613,0.437696335 0.756020942,0.795811518 C0.397905759,1.1539267 0.159162304,1.63141361 0.159162304,2.18848168 L0.159162304,12.6931937 C5.21256545,8.27643979 10.3455497,4.09842932 15.4387435,0.238743455 L2.1486911,0.238743455 L2.1486911,0.19895288 Z" id="Path"></path>
            <path d="M48.7434555,75.721466 L73.7319372,75.721466 C74.2890052,75.721466 74.7664921,75.4827225 75.1246073,75.1246073 C75.4827225,74.7664921 75.721466,74.2890052 75.721466,73.7319372 L75.721466,63.8638743 C75.0450262,64.2219895 74.3287958,64.5801047 73.652356,64.9780105 C66.0921466,68.9172775 57.6565445,72.4984293 48.7434555,75.721466" id="Path"></path>
            <path d="M75.1246073,0.756020942 C74.7664921,0.397905759 74.2890052,0.159162304 73.7319372,0.159162304 L49.7382199,0.159162304 C43.1727749,2.74554974 36.3287958,6.24712042 29.5246073,10.3455497 C19.8157068,16.234555 9.62931937,24.8691099 0.159162304,34.1005236 L0.159162304,43.252356 C8.51518325,34.339267 18.3434555,25.1078534 27.6942408,19.4575916 C32.747644,16.3937173 37.8806283,13.8073298 42.7748691,11.9769634 C47.6691099,10.1465969 52.3643979,9.07225131 56.582199,9.07225131 C59.6062827,9.07225131 62.391623,9.62931937 64.8188482,10.8628272 C67.2460733,12.0963351 69.2753927,14.0460733 70.7874346,16.7518325 C72.1403141,19.139267 72.7769634,21.5664921 72.7769634,23.9539267 C72.7769634,26.6198953 72.0209424,29.2460733 70.6680628,31.7926702 C69.3151832,34.339267 67.3256545,36.8460733 64.9382199,39.2335079 C60.1235602,44.008377 53.4387435,48.4649215 46.0774869,52.3246073 C40.2680628,55.3486911 33.2251309,57.895288 25.9832461,59.9643979 C18.7413613,62.0335079 11.2209424,63.6649215 4.41675393,64.9382199 C2.98429319,65.2167539 1.55183246,65.4554974 0.19895288,65.6942408 L0.19895288,72.617801 C8.51518325,70.9863874 17.3486911,68.9570681 25.9434555,66.4900524 C36.408377,63.5057592 46.4753927,59.8848168 54.791623,55.547644 C62.5905759,51.4890052 69.7926702,46.9528796 75.7612565,42.1382199 L75.7612565,2.1486911 C75.6816754,1.63141361 75.4827225,1.11413613 75.1246073,0.756020942" id="Path"></path>
            <polygon id="Path" points="0.119371728 106.201047 0.557068063 106.201047 0.557068063 103.773822 2.98429319 103.773822 2.98429319 103.415707 0.557068063 103.415707 0.557068063 101.187435 3.38219895 101.187435 3.38219895 100.829319 0.119371728 100.829319"></polygon>
            <path d="M6.96335079,105.484817 C6.68481675,105.763351 6.32670157,105.882723 5.92879581,105.882723 C5.53089005,105.882723 5.17277487,105.72356 4.89424084,105.484817 C4.49633508,105.086911 4.49633508,104.689005 4.49633508,103.535079 C4.49633508,102.381152 4.53612565,101.983246 4.89424084,101.58534 C5.17277487,101.306806 5.53089005,101.187435 5.92879581,101.187435 C6.32670157,101.187435 6.68481675,101.346597 6.96335079,101.58534 C7.36125654,101.983246 7.36125654,102.381152 7.36125654,103.535079 C7.40104712,104.689005 7.36125654,105.086911 6.96335079,105.484817 M5.96858639,100.789529 C5.4513089,100.789529 4.97382199,100.988482 4.61570681,101.346597 C4.1382199,101.824084 4.09842932,102.301571 4.09842932,103.535079 C4.09842932,104.768586 4.09842932,105.246073 4.61570681,105.72356 C4.97382199,106.081675 5.4513089,106.280628 5.96858639,106.280628 C6.48586387,106.280628 6.96335079,106.081675 7.32146597,105.72356 C7.79895288,105.246073 7.83874346,104.768586 7.83874346,103.535079 C7.83874346,102.301571 7.83874346,101.824084 7.32146597,101.346597 C6.96335079,100.988482 6.4460733,100.789529 5.96858639,100.789529" id="Shape" fill-rule="nonzero"></path>
            <path d="M12.4544503,104.410471 C12.4544503,105.285864 11.8973822,105.882723 11.0219895,105.882723 C10.1465969,105.882723 9.5895288,105.285864 9.5895288,104.410471 L9.5895288,100.829319 L9.19162304,100.829319 L9.19162304,104.450262 C9.19162304,105.484817 9.94764398,106.240838 11.0219895,106.240838 C12.0963351,106.240838 12.852356,105.484817 12.852356,104.450262 L12.852356,100.829319 L12.4544503,100.829319 L12.4544503,104.410471 Z" id="Path"></path>
            <polygon id="Path" points="17.9455497 105.484817 14.8418848 100.829319 14.4439791 100.829319 14.4439791 106.201047 14.8418848 106.201047 14.8418848 101.54555 17.9455497 106.201047 18.3434555 106.201047 18.3434555 100.829319 17.9455497 100.829319"></polygon>
            <path d="M22.8795812,105.445026 C22.5612565,105.763351 22.1633508,105.842932 21.7256545,105.842932 L20.4125654,105.842932 L20.4125654,101.187435 L21.7256545,101.187435 C22.1633508,101.187435 22.5612565,101.267016 22.8795812,101.58534 C23.3172775,102.023037 23.2774869,102.818848 23.2774869,103.415707 C23.2774869,104.052356 23.3172775,105.00733 22.8795812,105.445026 M23.1581152,101.306806 C22.8397906,100.988482 22.3623037,100.829319 21.8052356,100.829319 L20.0146597,100.829319 L20.0146597,106.201047 L21.8052356,106.201047 C22.3623037,106.201047 22.8397906,106.041885 23.1581152,105.72356 C23.7151832,105.166492 23.6753927,104.171728 23.6753927,103.455497 C23.6753927,102.739267 23.7151832,101.863874 23.1581152,101.306806" id="Shape" fill-rule="nonzero"></path>
            <path d="M25.3465969,104.529843 L26.460733,101.346597 L27.5748691,104.529843 L25.3465969,104.529843 Z M26.3015707,100.829319 L24.3120419,106.201047 L24.7497382,106.201047 L25.2272251,104.887958 L27.7340314,104.887958 L28.2115183,106.201047 L28.6492147,106.201047 L26.6596859,100.829319 L26.3015707,100.829319 Z" id="Shape" fill-rule="nonzero"></path>
            <polygon id="Path" points="28.5298429 101.187435 30.121466 101.187435 30.121466 106.201047 30.5193717 106.201047 30.5193717 101.187435 32.1507853 101.187435 32.1507853 100.829319 28.5298429 100.829319"></polygon>
            <rect id="Rectangle" x="33.1853403" y="100.829319" width="1" height="5.37172775"></rect>
            <path d="M37.9204188,105.484817 C37.6418848,105.763351 37.2837696,105.882723 36.8858639,105.882723 C36.4879581,105.882723 36.1298429,105.72356 35.8513089,105.484817 C35.4534031,105.086911 35.4534031,104.689005 35.4534031,103.535079 C35.4534031,102.381152 35.4931937,101.983246 35.8513089,101.58534 C36.1298429,101.306806 36.4879581,101.187435 36.8858639,101.187435 C37.2837696,101.187435 37.6418848,101.346597 37.9204188,101.58534 C38.3183246,101.983246 38.3183246,102.381152 38.3183246,103.535079 C38.3183246,104.689005 38.278534,105.086911 37.9204188,105.484817 M36.8858639,100.789529 C36.3685864,100.789529 35.8910995,100.988482 35.5329843,101.346597 C35.0554974,101.824084 35.0157068,102.301571 35.0157068,103.535079 C35.0157068,104.768586 35.0157068,105.246073 35.5329843,105.72356 C35.8910995,106.081675 36.3685864,106.280628 36.8858639,106.280628 C37.4031414,106.280628 37.8806283,106.081675 38.2387435,105.72356 C38.7162304,105.246073 38.7560209,104.768586 38.7560209,103.535079 C38.7560209,102.301571 38.7560209,101.824084 38.2387435,101.346597 C37.8806283,100.988482 37.4031414,100.789529 36.8858639,100.789529" id="Shape" fill-rule="nonzero"></path>
            <polygon id="Path" points="43.6900524 105.484817 40.5863874 100.829319 40.1884817 100.829319 40.1884817 106.201047 40.5863874 106.201047 40.5863874 101.54555 43.6900524 106.201047 44.0879581 106.201047 44.0879581 100.829319 43.6900524 100.829319"></polygon>
            <path d="M7.56020942,93.6670157 C7.67958115,93.1099476 7.7591623,92.4732984 7.7591623,91.8366492 C7.7591623,91.2795812 7.71937173,90.7623037 7.67958115,90.3246073 C7.63979058,89.886911 7.52041885,89.4890052 7.32146597,89.1308901 C7.16230366,88.7727749 6.92356021,88.4942408 6.6052356,88.2157068 C6.28691099,87.9769634 5.88900524,87.7382199 5.41151832,87.539267 L3.70052356,86.8628272 C3.42198953,86.7434555 3.18324607,86.6240838 3.02408377,86.504712 C2.86492147,86.3853403 2.74554974,86.2659686 2.62617801,86.1068063 C2.54659686,85.947644 2.46701571,85.7884817 2.46701571,85.5497382 C2.42722513,85.3507853 2.42722513,85.0722513 2.42722513,84.7539267 C2.42722513,84.4753927 2.46701571,84.2366492 2.50680628,83.9979058 C2.54659686,83.7591623 2.62617801,83.5602094 2.74554974,83.3612565 C2.86492147,83.1623037 3.02408377,83.0429319 3.22303665,82.9235602 C3.42198953,82.8041885 3.66073298,82.7643979 3.97905759,82.7643979 C4.53612565,82.7643979 4.97382199,82.9633508 5.21256545,83.321466 C5.4513089,83.6795812 5.57068063,84.1570681 5.57068063,84.6743455 L5.57068063,85.191623 L7.83874346,85.191623 L7.83874346,84.0774869 C7.83874346,83.6397906 7.7591623,83.2020942 7.56020942,82.8041885 C7.40104712,82.3664921 7.12251309,82.008377 6.80418848,81.6502618 C6.48586387,81.3319372 6.08795812,81.0534031 5.6104712,80.8146597 C5.13298429,80.6157068 4.65549738,80.4963351 4.05863874,80.4963351 C3.42198953,80.4963351 2.86492147,80.6157068 2.34764398,80.8544503 C1.87015707,81.0931937 1.47225131,81.3717277 1.1539267,81.7696335 C0.835602094,82.1675393 0.596858639,82.6052356 0.437696335,83.1225131 C0.278534031,83.6397906 0.19895288,84.1968586 0.19895288,84.7937173 C0.19895288,85.7884817 0.358115183,86.5842932 0.676439791,87.260733 C0.994764398,87.8973822 1.67120419,88.4544503 2.62617801,88.852356 L4.21780105,89.5287958 C4.49633508,89.6481675 4.73507853,89.7675393 4.89424084,89.8471204 C5.05340314,89.9664921 5.21256545,90.0858639 5.2921466,90.2450262 C5.37172775,90.4041885 5.4513089,90.6031414 5.49109948,90.8816754 C5.53089005,91.1602094 5.53089005,91.478534 5.53089005,91.8764398 C5.53089005,92.234555 5.53089005,92.5528796 5.49109948,92.8314136 C5.4513089,93.1099476 5.41151832,93.3884817 5.2921466,93.5874346 C5.17277487,93.7863874 5.01361257,93.9455497 4.81465969,94.0649215 C4.61570681,94.1842932 4.2973822,94.2240838 3.93926702,94.2240838 C3.38219895,94.2240838 2.94450262,94.0649215 2.70575916,93.7465969 C2.46701571,93.4282723 2.34764398,93.0303665 2.34764398,92.6324607 L2.34764398,91.9162304 L0.119371728,91.9162304 L0.119371728,92.7518325 C0.119371728,93.2691099 0.19895288,93.7863874 0.397905759,94.2240838 C0.596858639,94.6617801 0.87539267,95.0596859 1.19371728,95.417801 C1.51204188,95.7361257 1.94973822,96.0146597 2.38743455,96.2136126 C2.86492147,96.4125654 3.38219895,96.4921466 3.89947644,96.4921466 C4.61570681,96.4921466 5.21256545,96.3727749 5.72984293,96.1340314 C6.24712042,95.895288 6.64502618,95.5769634 6.92356021,95.1790576 C7.20209424,94.7413613 7.4408377,94.2638743 7.56020942,93.6670157" id="Path"></path>
            <path d="M16.3937173,94.2240838 C16.5926702,93.7863874 16.6722513,93.3089005 16.6722513,92.791623 L16.6722513,80.6157068 L14.4439791,80.6157068 L14.4439791,92.5528796 C14.4439791,93.1099476 14.3246073,93.5078534 14.0460733,93.7863874 C13.7675393,94.0649215 13.4492147,94.1842932 13.0513089,94.1842932 C12.6534031,94.1842932 12.3350785,94.0649215 12.0565445,93.7863874 C11.7780105,93.5078534 11.6586387,93.1099476 11.6586387,92.5528796 L11.6586387,80.6157068 L9.43036649,80.6157068 L9.43036649,92.791623 C9.43036649,93.3089005 9.50994764,93.7863874 9.70890052,94.2240838 C9.9078534,94.6617801 10.1465969,95.0596859 10.504712,95.3780105 C10.8230366,95.6963351 11.2209424,95.9748691 11.6586387,96.173822 C12.0963351,96.3727749 12.573822,96.452356 13.0513089,96.452356 C13.5685864,96.452356 14.0062827,96.3727749 14.4439791,96.173822 C14.8816754,95.9748691 15.2795812,95.7361257 15.5979058,95.3780105 C15.9560209,95.0596859 16.1947644,94.6617801 16.3937173,94.2240838" id="Path"></path>
            <path d="M24.0335079,86.226178 C23.9937173,86.5445026 23.9141361,86.7832461 23.7947644,86.982199 C23.6753927,87.1811518 23.4764398,87.3403141 23.2376963,87.4596859 C22.9989529,87.5790576 22.6806283,87.6188482 22.2827225,87.6188482 L21.0094241,87.6188482 L21.0094241,82.7246073 L22.1633508,82.7246073 C22.5612565,82.7246073 22.9193717,82.7643979 23.1581152,82.8837696 C23.3968586,83.0031414 23.5958115,83.1623037 23.7549738,83.3612565 C23.9141361,83.5602094 23.9937173,83.8387435 24.0335079,84.1172775 C24.0732984,84.4356021 24.113089,84.7539267 24.113089,85.1518325 C24.113089,85.5895288 24.0732984,85.947644 24.0335079,86.226178 Z M24.4314136,89.1308901 C25.147644,88.7329843 25.6649215,88.2157068 25.9434555,87.539267 C26.2219895,86.9026178 26.3811518,86.1068063 26.3811518,85.191623 C26.3811518,82.1277487 25.0680628,80.5759162 22.4020942,80.5759162 L18.7811518,80.5759162 L18.7811518,96.2534031 L21.0094241,96.2534031 L21.0094241,89.5685864 L22.3623037,89.5685864 L24.4712042,96.2534031 L26.8586387,96.2534031 L24.4314136,89.1308901 Z" id="Shape" fill-rule="nonzero"></path>
            <polygon id="Path" points="34.8565445 82.7246073 34.8565445 80.6157068 28.1319372 80.6157068 28.1319372 96.3329843 30.4 96.3329843 30.4 89.608377 34.2596859 89.608377 34.2596859 87.4994764 30.4 87.4994764 30.4 82.7246073"></polygon>
            <path d="M41.5413613,86.226178 C41.5015707,86.5445026 41.4219895,86.7832461 41.3026178,86.982199 C41.1832461,87.1811518 40.9842932,87.3403141 40.7455497,87.4596859 C40.5068063,87.5790576 40.1884817,87.6188482 39.7905759,87.6188482 L38.5172775,87.6188482 L38.5172775,82.7246073 L39.6712042,82.7246073 C40.0691099,82.7246073 40.4272251,82.7643979 40.6659686,82.8837696 C40.904712,83.0031414 41.1036649,83.1623037 41.2628272,83.3612565 C41.4219895,83.5602094 41.5015707,83.8387435 41.5413613,84.1172775 C41.5811518,84.4356021 41.6209424,84.7539267 41.6209424,85.1518325 C41.6209424,85.5895288 41.5811518,85.947644 41.5413613,86.226178 M43.4513089,87.5790576 C43.7298429,86.9424084 43.8890052,86.1465969 43.8890052,85.2314136 C43.8890052,82.1675393 42.5759162,80.6157068 39.9099476,80.6157068 L36.2890052,80.6157068 L36.2890052,96.2931937 L38.5172775,96.2931937 L38.5172775,89.608377 L39.8701571,89.608377 L41.9790576,96.2931937 L44.3664921,96.2931937 L41.939267,89.1308901 C42.6554974,88.7727749 43.1329843,88.2157068 43.4513089,87.5790576" id="Shape" fill-rule="nonzero"></path>
            <rect id="Rectangle" x="45.7193717" y="80.6157068" width="2.26806283" height="15.6774869"></rect>
            <path d="M55.1497382,92.234555 C55.1497382,92.9109948 55.0303665,93.3884817 54.7518325,93.7068063 C54.4732984,94.0251309 54.0356021,94.1842932 53.3989529,94.1842932 L52.3643979,94.1842932 L52.3643979,82.7246073 L53.3989529,82.7246073 C54.0753927,82.7246073 54.513089,82.8837696 54.7518325,83.2418848 C54.9905759,83.6 55.1099476,84.0774869 55.1099476,84.6743455 L55.1099476,92.234555 L55.1497382,92.234555 Z M53.4387435,80.6157068 L50.1361257,80.6157068 L50.1361257,96.2931937 L53.2795812,96.2931937 C54.6324607,96.2931937 55.6272251,95.9350785 56.3434555,95.2586387 C57.0596859,94.5424084 57.417801,93.4680628 57.417801,91.9958115 L57.417801,84.6743455 C57.417801,83.4010471 57.0596859,82.4062827 56.4230366,81.6900524 C55.7068063,80.973822 54.7120419,80.6157068 53.4387435,80.6157068 Z" id="Shape" fill-rule="nonzero"></path>
            <polygon id="Path" points="59.208377 96.3329843 65.9329843 96.3329843 65.9329843 94.0649215 61.4764398 94.0649215 61.4764398 89.4492147 65.3361257 89.4492147 65.3361257 87.3403141 61.4764398 87.3403141 61.4764398 82.7246073 65.9329843 82.7246073 65.9329843 80.6157068 59.208377 80.6157068"></polygon>
            <path d="M69.8722513,82.7246073 L71.026178,82.7246073 C71.4240838,82.7246073 71.782199,82.7643979 72.0209424,82.8837696 C72.2596859,83.0031414 72.4586387,83.1623037 72.617801,83.3612565 C72.7769634,83.5602094 72.8565445,83.8387435 72.8963351,84.1172775 C72.9361257,84.4356021 72.9759162,84.7539267 72.9759162,85.1518325 C72.9759162,85.5497382 72.9361257,85.9078534 72.8963351,86.1863874 C72.8565445,86.504712 72.7769634,86.7434555 72.6575916,86.9424084 C72.5382199,87.1413613 72.339267,87.3005236 72.1005236,87.4198953 C71.8617801,87.539267 71.5434555,87.5790576 71.1455497,87.5790576 L69.8722513,87.5790576 L69.8722513,82.7246073 Z M69.8722513,89.608377 L71.2251309,89.608377 L73.3340314,96.2931937 L75.721466,96.2931937 L73.2942408,89.1308901 C74.0104712,88.7329843 74.5277487,88.2157068 74.8062827,87.539267 C75.0848168,86.9026178 75.2439791,86.1068063 75.2439791,85.191623 C75.2439791,82.1277487 73.9308901,80.5759162 71.2649215,80.5759162 L67.6439791,80.5759162 L67.6439791,96.2534031 L69.9120419,96.2534031 L69.9120419,89.608377 L69.8722513,89.608377 Z" id="Shape" fill-rule="nonzero"></path>
            <polygon id="Path" points="47.7089005 100.789529 51.1308901 100.789529 51.1308901 101.54555 48.5445026 101.54555 48.5445026 103.097382 50.7727749 103.097382 50.7727749 103.813613 48.5445026 103.813613 48.5445026 105.365445 51.1308901 105.365445 51.1308901 106.121466 47.7089005 106.121466"></polygon>
            <path d="M52.2052356,100.789529 L53.0010471,100.789529 L53.0010471,104.251309 C53.0010471,104.609424 53.1204188,104.887958 53.3193717,105.086911 C53.5183246,105.285864 53.7968586,105.405236 54.0753927,105.405236 C54.3937173,105.405236 54.6324607,105.285864 54.8712042,105.086911 C55.0701571,104.887958 55.1895288,104.609424 55.1895288,104.251309 L55.1895288,100.789529 L55.9853403,100.789529 L55.9853403,104.33089 C55.9853403,104.887958 55.7863874,105.325654 55.4282723,105.68377 C55.0701571,106.041885 54.6324607,106.201047 54.0753927,106.201047 C53.5581152,106.201047 53.0806283,106.041885 52.7225131,105.68377 C52.3643979,105.365445 52.165445,104.887958 52.165445,104.33089 L52.165445,100.789529 L52.2052356,100.789529 Z" id="Path"></path>
            <path d="M58.2534031,103.137173 L59.486911,103.137173 C59.8052356,103.137173 60.0041885,103.057592 60.1633508,102.858639 C60.3225131,102.699476 60.4020942,102.500524 60.4020942,102.26178 C60.4020942,101.983246 60.3225131,101.784293 60.1235602,101.664921 C60.0041885,101.54555 59.8052356,101.505759 59.5267016,101.505759 L58.2534031,101.505759 L58.2534031,103.137173 Z M57.417801,100.789529 L59.5267016,100.789529 C59.9643979,100.789529 60.3225131,100.908901 60.6010471,101.147644 C60.9591623,101.426178 61.1183246,101.784293 61.1183246,102.301571 C61.1183246,103.017801 60.7602094,103.535079 60.0837696,103.773822 L61.3172775,106.161257 L60.3623037,106.161257 L59.2879581,103.853403 L58.2534031,103.853403 L58.2534031,106.161257 L57.4575916,106.161257 L57.4575916,100.789529 L57.417801,100.789529 Z" id="Shape" fill-rule="nonzero"></path>
            <path d="M63.0282723,103.455497 C63.0282723,103.972775 63.0282723,104.33089 63.0680628,104.529843 C63.1078534,104.728796 63.1874346,104.848168 63.2670157,104.967539 C63.3465969,105.086911 63.4659686,105.166492 63.5853403,105.246073 C63.704712,105.325654 63.9036649,105.365445 64.0628272,105.365445 C64.2617801,105.365445 64.4209424,105.325654 64.5801047,105.246073 C64.6994764,105.166492 64.8188482,105.086911 64.8984293,104.967539 C65.017801,104.848168 65.0575916,104.689005 65.0973822,104.529843 C65.1371728,104.33089 65.1371728,103.972775 65.1371728,103.455497 C65.1371728,102.93822 65.1371728,102.580105 65.0973822,102.381152 C65.0575916,102.182199 64.9780105,102.062827 64.8984293,101.943455 C64.8188482,101.824084 64.6994764,101.744503 64.5801047,101.664921 C64.4209424,101.58534 64.2617801,101.54555 64.0628272,101.54555 C63.8638743,101.54555 63.704712,101.58534 63.5853403,101.664921 C63.426178,101.744503 63.3465969,101.824084 63.2670157,101.943455 C63.147644,102.062827 63.1078534,102.22199 63.0680628,102.381152 C63.0680628,102.580105 63.0282723,102.93822 63.0282723,103.455497 M62.2324607,103.455497 C62.2324607,102.818848 62.2324607,102.420942 62.2722513,102.22199 C62.3120419,102.023037 62.3518325,101.824084 62.4712042,101.704712 C62.5905759,101.465969 62.7895288,101.227225 63.1078534,101.028272 C63.3863874,100.829319 63.7445026,100.749738 64.1424084,100.709948 C64.5801047,100.709948 64.9382199,100.829319 65.2167539,101.028272 C65.495288,101.227225 65.6942408,101.426178 65.8136126,101.704712 C65.8931937,101.824084 65.9727749,102.023037 66.0125654,102.22199 C66.052356,102.420942 66.052356,102.858639 66.052356,103.455497 C66.052356,104.052356 66.052356,104.490052 66.0125654,104.689005 C65.9727749,104.887958 65.9329843,105.086911 65.8136126,105.206283 C65.6942408,105.445026 65.495288,105.68377 65.2167539,105.842932 C64.9382199,106.041885 64.5801047,106.161257 64.1424084,106.161257 C63.704712,106.161257 63.3863874,106.041885 63.1078534,105.842932 C62.8293194,105.643979 62.6303665,105.445026 62.4712042,105.206283 C62.4314136,105.126702 62.391623,105.04712 62.3518325,104.967539 C62.3120419,104.887958 62.3120419,104.808377 62.2722513,104.689005 C62.2324607,104.490052 62.2324607,104.092147 62.2324607,103.455497" id="Shape" fill-rule="nonzero"></path>
            <path d="M68.2010471,103.296335 L69.3947644,103.296335 C69.713089,103.296335 69.9120419,103.216754 70.0712042,103.017801 C70.2303665,102.858639 70.2701571,102.659686 70.2701571,102.420942 C70.2701571,102.26178 70.2303665,102.102618 70.1905759,101.983246 C70.1109948,101.863874 70.0314136,101.784293 69.9518325,101.704712 C69.7926702,101.58534 69.5937173,101.54555 69.3549738,101.54555 L68.2010471,101.54555 L68.2010471,103.296335 Z M67.4052356,100.789529 L69.3549738,100.789529 C69.5539267,100.789529 69.7528796,100.789529 69.9518325,100.829319 C70.1507853,100.86911 70.3497382,100.988482 70.5486911,101.147644 C70.7078534,101.267016 70.8670157,101.426178 70.9465969,101.664921 C71.0659686,101.863874 71.1057592,102.142408 71.1057592,102.420942 C71.1057592,102.818848 70.9465969,103.176963 70.6680628,103.495288 C70.3895288,103.853403 69.9518325,104.012565 69.3947644,104.012565 L68.1612565,104.012565 L68.1612565,106.121466 L67.365445,106.121466 L67.365445,100.789529 L67.4052356,100.789529 Z" id="Shape" fill-rule="nonzero"></path>
            <polygon id="Path" points="72.2198953 100.789529 75.6418848 100.789529 75.6418848 101.54555 73.0554974 101.54555 73.0554974 103.097382 75.2837696 103.097382 75.2837696 103.813613 73.0554974 103.813613 73.0554974 105.365445 75.6418848 105.365445 75.6418848 106.121466 72.2198953 106.121466"></polygon>
        </g>
    </g>
</svg>
